<?xml version="1.0" encoding="utf-8"?>
<svg xmlns="http://www.w3.org/2000/svg" xmlns:xlink="http://www.w3.org/1999/xlink" width="423" zoomAndPan="magnify" viewBox="141 41.37 423 484.62" height="484.62" preserveAspectRatio="xMidYMid meet" version="1.0">
  <defs>
    <g />
    <clipPath id="id1">
      <path d="M 0.59375 0 L 704.402344 0 L 704.402344 590 L 0.59375 590 Z M 0.59375 0 " clip-rule="nonzero" />
    </clipPath>
    <clipPath id="id2">
      <path d="M 159.195312 59 L 545.542969 59 L 545.542969 445.347656 L 159.195312 445.347656 Z M 159.195312 59 " clip-rule="nonzero" />
    </clipPath>
    <clipPath id="id3">
      <path d="M 407.695312 214.367188 C 402.03125 204.8125 393.992188 196.851562 384.363281 191.300781 C 384.183594 191.152344 383.980469 191.054688 383.78125 190.945312 C 377.636719 187.492188 370.871094 185.046875 363.695312 183.765625 C 363.398438 183.679688 363.089844 183.613281 362.773438 183.625 C 359.378906 183.070312 355.921875 182.703125 352.371094 182.703125 C 348.824219 182.703125 345.367188 183.070312 341.972656 183.625 C 341.652344 183.613281 341.347656 183.679688 341.046875 183.765625 C 333.863281 185.046875 327.085938 187.503906 320.933594 190.964844 C 320.746094 191.066406 320.554688 191.15625 320.386719 191.296875 C 310.753906 196.847656 302.714844 204.808594 297.046875 214.367188 C 296.769531 214.660156 296.566406 215.007812 296.421875 215.390625 C 291.105469 224.75 288.03125 235.535156 288.03125 247.042969 C 288.03125 258.550781 291.105469 269.339844 296.421875 278.695312 C 296.5625 279.082031 296.769531 279.429688 297.046875 279.722656 C 302.679688 289.21875 310.65625 297.136719 320.210938 302.683594 C 320.523438 302.988281 320.894531 303.199219 321.292969 303.34375 C 327.296875 306.667969 333.890625 309.027344 340.867188 310.296875 C 341.1875 310.410156 341.523438 310.484375 341.875 310.484375 C 341.902344 310.484375 341.9375 310.464844 341.96875 310.464844 C 345.363281 311.019531 348.820312 311.382812 352.371094 311.382812 C 355.917969 311.382812 359.375 311.019531 362.773438 310.464844 C 362.804688 310.464844 362.835938 310.484375 362.867188 310.484375 C 363.210938 310.484375 363.550781 310.410156 363.875 310.296875 C 370.851562 309.03125 377.445312 306.667969 383.449219 303.34375 C 383.847656 303.195312 384.222656 302.988281 384.535156 302.683594 C 394.085938 297.136719 402.066406 289.21875 407.695312 279.722656 C 407.972656 279.429688 408.175781 279.082031 408.320312 278.695312 C 413.632812 269.339844 416.710938 258.550781 416.710938 247.042969 C 416.710938 235.535156 413.632812 224.75 408.316406 215.390625 C 408.175781 215.007812 407.96875 214.664062 407.695312 214.367188 Z M 403.636719 274.582031 L 396.703125 274.582031 C 399.003906 266.433594 400.222656 258.269531 400.476562 250.109375 L 410.425781 250.109375 C 409.964844 258.917969 407.601562 267.230469 403.636719 274.582031 Z M 367.800781 303.117188 C 370.582031 295.644531 372.808594 288.175781 374.488281 280.710938 L 388.222656 280.710938 C 386.085938 286.546875 383.402344 292.371094 380.152344 298.1875 C 376.285156 300.296875 372.132812 301.921875 367.800781 303.117188 Z M 355.433594 305.105469 L 355.433594 280.710938 L 368.195312 280.710938 C 366.335938 288.667969 363.835938 296.636719 360.671875 304.597656 C 358.949219 304.84375 357.203125 305.007812 355.433594 305.105469 Z M 344.066406 304.59375 C 340.90625 296.632812 338.40625 288.667969 336.546875 280.710938 L 349.304688 280.710938 L 349.304688 305.101562 C 347.539062 305.007812 345.792969 304.84375 344.066406 304.59375 Z M 324.585938 298.1875 C 321.335938 292.375 318.652344 286.546875 316.515625 280.710938 L 330.253906 280.710938 C 331.929688 288.171875 334.15625 295.644531 336.941406 303.117188 C 332.609375 301.921875 328.453125 300.296875 324.585938 298.1875 Z M 294.3125 250.109375 L 304.261719 250.109375 C 304.515625 258.269531 305.734375 266.433594 308.035156 274.582031 L 301.105469 274.582031 C 297.136719 267.230469 294.773438 258.917969 294.3125 250.109375 Z M 301.101562 219.507812 L 308.042969 219.507812 C 305.738281 227.65625 304.515625 235.820312 304.261719 243.980469 L 294.3125 243.980469 C 294.773438 235.171875 297.136719 226.859375 301.101562 219.507812 Z M 336.886719 190.988281 C 334.0625 198.421875 331.816406 205.886719 330.132812 213.378906 L 316.53125 213.378906 C 318.667969 207.539062 321.355469 201.710938 324.605469 195.894531 C 328.449219 193.796875 332.582031 192.179688 336.886719 190.988281 Z M 349.304688 188.988281 L 349.304688 213.378906 L 336.429688 213.378906 C 338.296875 205.382812 340.828125 197.417969 344.050781 189.496094 C 345.78125 189.25 347.53125 189.082031 349.304688 188.988281 Z M 360.6875 189.496094 C 363.910156 197.417969 366.441406 205.382812 368.3125 213.378906 L 355.433594 213.378906 L 355.433594 188.988281 C 357.207031 189.082031 358.960938 189.25 360.6875 189.496094 Z M 380.136719 195.894531 C 383.390625 201.710938 386.074219 207.539062 388.214844 213.378906 L 374.609375 213.378906 C 372.929688 205.886719 370.679688 198.417969 367.859375 190.988281 C 372.160156 192.179688 376.289062 193.796875 380.136719 195.894531 Z M 378.300781 243.980469 C 378.15625 235.796875 377.332031 227.636719 375.847656 219.507812 L 390.242188 219.507812 C 392.679688 227.65625 394.019531 235.820312 394.292969 243.980469 Z M 349.304688 250.109375 L 349.304688 274.582031 L 335.230469 274.582031 C 333.664062 266.410156 332.796875 258.25 332.597656 250.109375 Z M 332.582031 243.980469 C 332.734375 235.796875 333.578125 227.636719 335.125 219.507812 L 349.304688 219.507812 L 349.304688 243.980469 Z M 355.433594 250.109375 L 372.140625 250.109375 C 371.949219 258.25 371.078125 266.410156 369.507812 274.582031 L 355.433594 274.582031 Z M 355.433594 243.980469 L 355.433594 219.507812 L 369.613281 219.507812 C 371.15625 227.636719 372.007812 235.796875 372.160156 243.980469 Z M 328.890625 219.507812 C 327.402344 227.636719 326.582031 235.800781 326.433594 243.980469 L 310.445312 243.980469 C 310.71875 235.816406 312.054688 227.652344 314.496094 219.507812 Z M 310.445312 250.109375 L 326.457031 250.109375 C 326.644531 258.25 327.488281 266.410156 328.996094 274.582031 L 314.484375 274.582031 C 312.050781 266.433594 310.714844 258.273438 310.445312 250.109375 Z M 375.742188 274.582031 C 377.25 266.410156 378.097656 258.25 378.285156 250.109375 L 394.296875 250.109375 C 394.027344 258.273438 392.691406 266.433594 390.25 274.582031 Z M 400.476562 243.980469 C 400.21875 235.820312 398.996094 227.65625 396.695312 219.507812 L 403.636719 219.507812 C 407.601562 226.859375 409.964844 235.171875 410.429688 243.980469 Z M 399.773438 213.378906 L 394.75 213.378906 C 393.59375 210.042969 392.234375 206.710938 390.738281 203.378906 C 394.121094 206.355469 397.152344 209.703125 399.773438 213.378906 Z M 314 203.378906 C 312.503906 206.710938 311.144531 210.042969 309.992188 213.378906 L 304.964844 213.378906 C 307.585938 209.703125 310.621094 206.355469 314 203.378906 Z M 304.964844 280.710938 L 309.980469 280.710938 C 311.132812 284.039062 312.488281 287.367188 313.980469 290.691406 C 310.609375 287.722656 307.582031 284.378906 304.964844 280.710938 Z M 390.757812 290.695312 C 392.25 287.371094 393.605469 284.042969 394.753906 280.710938 L 399.769531 280.710938 C 397.160156 284.378906 394.128906 287.722656 390.757812 290.695312 Z M 424.957031 172.941406 C 405.039062 160.238281 383.144531 151.152344 359.886719 145.929688 C 354.898438 144.8125 349.84375 144.8125 344.851562 145.929688 C 321.59375 151.152344 299.703125 160.242188 279.78125 172.941406 C 275.9375 175.394531 273.640625 179.632812 273.640625 184.28125 L 273.640625 277.140625 C 273.640625 289.835938 277.378906 301.964844 284.453125 312.207031 C 299.566406 334.097656 321.226562 345.628906 351.273438 357.136719 C 351.625 357.269531 352 357.339844 352.371094 357.339844 C 352.742188 357.339844 353.113281 357.269531 353.464844 357.136719 C 383.511719 345.628906 405.171875 334.097656 420.285156 312.207031 C 427.359375 301.960938 431.101562 289.832031 431.101562 277.140625 L 431.101562 184.28125 C 431.101562 179.632812 428.804688 175.390625 424.957031 172.941406 Z M 424.972656 277.136719 C 424.972656 288.582031 421.609375 299.507812 415.246094 308.726562 C 401.207031 329.054688 380.757812 340.042969 352.371094 350.992188 C 323.984375 340.042969 303.53125 329.054688 289.496094 308.726562 C 283.132812 299.507812 279.769531 288.582031 279.769531 277.136719 L 279.769531 184.28125 C 279.769531 181.777344 281.039062 179.40625 283.078125 178.101562 C 302.398438 165.785156 323.632812 156.976562 346.195312 151.902344 C 348.242188 151.445312 350.308594 151.214844 352.371094 151.214844 C 354.4375 151.214844 356.5 151.441406 358.550781 151.902344 C 381.113281 156.972656 402.347656 165.785156 421.667969 178.101562 C 423.707031 179.40625 424.976562 181.773438 424.976562 184.28125 L 424.976562 277.136719 Z M 482.039062 133.078125 C 480.347656 133.078125 478.976562 131.710938 478.976562 130.015625 L 478.976562 69.449219 C 478.976562 67.757812 480.347656 66.386719 482.039062 66.386719 C 483.730469 66.386719 485.101562 67.757812 485.101562 69.449219 L 485.101562 130.015625 C 485.101562 131.710938 483.730469 133.078125 482.039062 133.078125 Z M 268.921875 124.957031 C 267.230469 124.957031 265.855469 123.589844 265.855469 121.894531 L 265.855469 67.347656 C 265.855469 65.65625 267.230469 64.285156 268.921875 64.285156 C 270.613281 64.285156 271.984375 65.65625 271.984375 67.347656 L 271.984375 121.894531 C 271.984375 123.585938 270.613281 124.957031 268.921875 124.957031 Z M 159.351562 243.90625 C 159.351562 242.210938 160.722656 240.84375 162.414062 240.84375 L 214.335938 240.847656 C 216.027344 240.847656 217.398438 242.21875 217.398438 243.910156 C 217.398438 245.605469 216.027344 246.972656 214.335938 246.972656 L 162.414062 246.972656 C 160.722656 246.972656 159.351562 245.597656 159.351562 243.90625 Z M 211.4375 382.789062 C 211.4375 384.484375 210.066406 385.851562 208.375 385.851562 L 162.414062 385.851562 C 160.722656 385.851562 159.351562 384.484375 159.351562 382.789062 C 159.351562 381.09375 160.722656 379.726562 162.414062 379.726562 L 208.375 379.726562 C 210.066406 379.726562 211.4375 381.09375 211.4375 382.789062 Z M 307.046875 384.691406 L 307.046875 442.230469 C 307.046875 443.925781 305.675781 445.292969 303.984375 445.292969 C 302.292969 445.292969 300.917969 443.925781 300.917969 442.230469 L 300.917969 384.691406 C 300.917969 382.996094 302.292969 381.628906 303.984375 381.628906 C 305.675781 381.628906 307.046875 382.996094 307.046875 384.691406 Z M 481.097656 361.019531 L 481.097656 442.28125 C 481.097656 443.976562 479.722656 445.347656 478.03125 445.347656 C 476.339844 445.347656 474.96875 443.976562 474.96875 442.28125 L 474.96875 361.019531 C 474.96875 359.328125 476.339844 357.957031 478.03125 357.957031 C 479.722656 357.957031 481.097656 359.328125 481.097656 361.019531 Z M 545.390625 296.023438 C 545.390625 297.71875 544.015625 299.085938 542.324219 299.085938 L 495.277344 299.085938 C 493.585938 299.085938 492.214844 297.71875 492.214844 296.023438 C 492.214844 294.328125 493.585938 292.957031 495.277344 292.957031 L 542.324219 292.957031 C 544.015625 292.957031 545.390625 294.328125 545.390625 296.023438 Z M 159.351562 148.15625 C 159.351562 146.460938 160.722656 145.09375 162.414062 145.09375 L 188.375 145.09375 C 190.066406 145.09375 191.441406 146.460938 191.441406 148.15625 C 191.441406 149.851562 190.066406 151.222656 188.375 151.222656 L 162.414062 151.222656 C 160.722656 151.222656 159.351562 149.851562 159.351562 148.15625 Z M 487.132812 225.789062 L 508.570312 239.132812 C 509.070312 239.449219 509.632812 239.597656 510.183594 239.597656 C 511.207031 239.597656 512.207031 239.085938 512.789062 238.148438 C 513.683594 236.714844 513.242188 234.824219 511.804688 233.929688 L 490.542969 220.691406 L 493.78125 215.863281 L 505.933594 223.636719 C 506.445312 223.960938 507.015625 224.117188 507.582031 224.117188 C 508.59375 224.117188 509.582031 223.617188 510.164062 222.707031 C 511.078125 221.277344 510.660156 219.382812 509.234375 218.472656 L 497.191406 210.773438 L 507.574219 195.277344 C 508.410156 195.507812 509.277344 195.671875 510.1875 195.671875 C 515.648438 195.671875 520.09375 191.226562 520.09375 185.765625 C 520.09375 180.300781 515.648438 175.855469 510.1875 175.855469 C 504.722656 175.855469 500.277344 180.300781 500.277344 185.765625 C 500.277344 188.089844 501.117188 190.203125 502.464844 191.898438 L 470.222656 240.011719 L 442.109375 240.011719 L 442.109375 231.675781 L 463.554688 231.675781 C 465.246094 231.675781 466.621094 230.308594 466.621094 228.613281 C 466.621094 226.917969 465.246094 225.550781 463.554688 225.550781 L 442.109375 225.550781 L 442.109375 178.625 C 442.109375 174.148438 439.9375 169.992188 436.300781 167.503906 C 429.871094 163.113281 423.332031 159.144531 416.710938 155.574219 L 416.710938 134.757812 C 416.710938 133.0625 415.335938 131.691406 413.644531 131.691406 C 411.953125 131.691406 410.582031 133.0625 410.582031 134.757812 L 410.582031 152.453125 C 408.242188 151.292969 405.886719 150.191406 403.527344 149.132812 L 403.527344 112.777344 L 453.472656 64.578125 C 454.6875 63.398438 454.726562 61.460938 453.550781 60.242188 C 452.375 59.03125 450.433594 58.992188 449.21875 60.167969 L 398.335938 109.269531 C 397.738281 109.847656 397.398438 110.644531 397.398438 111.476562 L 397.398438 146.445312 C 384.449219 141.160156 371.210938 137.382812 357.761719 135.1875 C 356.988281 135.0625 356.207031 134.976562 355.429688 134.90625 L 355.429688 87.578125 C 355.429688 86.703125 355.054688 85.863281 354.394531 85.285156 L 333.890625 67.15625 C 332.621094 66.039062 330.683594 66.15625 329.566406 67.421875 C 328.445312 68.6875 328.5625 70.628906 329.832031 71.746094 L 349.304688 88.960938 L 349.304688 134.902344 C 348.527344 134.972656 347.75 135.058594 346.972656 135.183594 C 343.660156 135.726562 340.355469 136.371094 337.066406 137.101562 L 337.066406 124.582031 C 337.066406 122.886719 335.695312 121.515625 334.003906 121.515625 C 332.3125 121.515625 330.9375 122.886719 330.9375 124.582031 L 330.9375 138.648438 C 321.667969 141.050781 312.515625 144.207031 303.503906 148.109375 L 303.503906 132.765625 C 303.503906 131.070312 302.132812 129.699219 300.441406 129.699219 C 298.75 129.699219 297.378906 131.070312 297.378906 132.765625 L 297.378906 150.828125 C 287.535156 155.496094 277.875 161.054688 268.441406 167.5 C 264.800781 169.988281 262.632812 174.148438 262.632812 178.625 L 262.632812 200.082031 L 240.449219 200.082031 C 238.757812 200.082031 237.386719 201.453125 237.386719 203.144531 C 237.386719 204.839844 238.757812 206.210938 240.449219 206.210938 L 262.632812 206.210938 L 262.632812 213.375 L 229.117188 213.375 L 229.117188 142.140625 C 233.074219 140.839844 235.960938 137.152344 235.960938 132.765625 C 235.960938 127.300781 231.515625 122.859375 226.050781 122.859375 C 220.589844 122.859375 216.144531 127.300781 216.144531 132.765625 C 216.144531 137.152344 219.03125 140.839844 222.988281 142.140625 L 222.988281 216.441406 C 222.988281 218.136719 224.359375 219.507812 226.050781 219.507812 L 262.628906 219.507812 L 262.628906 263.796875 L 192.867188 263.796875 C 191.570312 259.839844 187.878906 256.953125 183.492188 256.953125 C 178.03125 256.953125 173.585938 261.398438 173.585938 266.859375 C 173.585938 272.324219 178.03125 276.769531 183.492188 276.769531 C 187.878906 276.769531 191.570312 273.882812 192.867188 269.925781 L 201.804688 269.925781 L 201.804688 303.527344 C 201.804688 305.222656 203.179688 306.59375 204.867188 306.59375 C 206.558594 306.59375 207.933594 305.222656 207.933594 303.527344 L 207.933594 269.925781 L 262.632812 269.925781 L 262.632812 272.46875 C 262.632812 273.6875 262.726562 274.898438 262.773438 276.109375 L 239.585938 276.109375 C 237.894531 276.109375 236.519531 277.480469 236.519531 279.175781 C 236.519531 280.867188 237.894531 282.238281 239.585938 282.238281 L 263.230469 282.238281 C 264.816406 296.632812 269.863281 310.324219 277.875 321.792969 L 253.753906 345.375 C 252.542969 346.558594 252.523438 348.5 253.707031 349.707031 C 254.304688 350.320312 255.101562 350.628906 255.898438 350.628906 C 256.667969 350.628906 257.441406 350.335938 258.039062 349.753906 L 281.558594 326.757812 C 284.15625 329.992188 286.9375 333.089844 289.90625 336.03125 L 253.765625 370.957031 C 253.167969 371.53125 252.828125 372.328125 252.828125 373.160156 L 252.828125 399.472656 L 218.96875 399.472656 C 217.277344 399.472656 215.90625 400.839844 215.90625 402.535156 C 215.90625 404.230469 217.277344 405.601562 218.96875 405.601562 L 252.828125 405.601562 L 252.828125 416.667969 C 248.871094 417.96875 245.984375 421.65625 245.984375 426.042969 C 245.984375 431.507812 250.429688 435.949219 255.894531 435.949219 C 261.355469 435.949219 265.800781 431.507812 265.800781 426.042969 C 265.800781 421.65625 262.914062 417.96875 258.957031 416.667969 L 258.957031 374.460938 L 294.394531 340.21875 C 308.871094 353.050781 327.257812 362.738281 349.304688 369.132812 L 349.304688 442.28125 C 349.304688 443.976562 350.679688 445.347656 352.371094 445.347656 C 354.0625 445.347656 355.433594 443.976562 355.433594 442.28125 L 355.433594 369.132812 C 373.695312 363.832031 389.441406 356.28125 402.535156 346.554688 L 402.535156 368.742188 C 402.535156 370.4375 403.910156 371.804688 405.601562 371.804688 C 407.292969 371.804688 408.664062 370.4375 408.664062 368.742188 L 408.664062 341.683594 C 411.160156 339.558594 413.546875 337.351562 415.820312 335.046875 L 415.820312 385.84375 L 392.316406 385.84375 C 390.625 385.84375 389.253906 387.214844 389.253906 388.90625 C 389.253906 390.601562 390.625 391.972656 392.316406 391.972656 L 415.820312 391.972656 L 415.820312 397.242188 C 411.863281 398.539062 408.976562 402.230469 408.976562 406.617188 C 408.976562 412.078125 413.421875 416.523438 418.886719 416.523438 C 424.347656 416.523438 428.792969 412.078125 428.792969 406.617188 C 428.792969 402.230469 425.90625 398.539062 421.949219 397.242188 L 421.949219 372.96875 L 437.296875 372.96875 C 438.988281 372.96875 440.359375 371.601562 440.359375 369.90625 C 440.359375 368.210938 438.988281 366.84375 437.296875 366.84375 L 421.949219 366.84375 L 421.949219 328.289062 C 422.972656 327.0625 423.960938 325.808594 424.929688 324.539062 L 446.109375 346.644531 C 446.710938 347.273438 447.515625 347.59375 448.320312 347.59375 C 449.085938 347.59375 449.847656 347.3125 450.441406 346.742188 C 451.664062 345.570312 451.703125 343.632812 450.535156 342.410156 L 428.5 319.410156 C 429.617188 317.683594 430.65625 315.90625 431.644531 314.089844 L 443.039062 325.285156 C 443.632812 325.871094 444.410156 326.164062 445.183594 326.164062 C 445.976562 326.164062 446.773438 325.859375 447.371094 325.25 C 448.554688 324.039062 448.535156 322.101562 447.328125 320.914062 L 434.496094 308.304688 C 439.429688 297.261719 442.113281 285.03125 442.113281 272.542969 L 442.113281 246.144531 L 468.792969 246.144531 L 468.792969 292.15625 C 468.792969 293.851562 470.167969 295.21875 471.859375 295.21875 C 473.550781 295.21875 474.921875 293.851562 474.921875 292.15625 L 474.921875 244.011719 Z M 226.050781 128.988281 C 228.136719 128.988281 229.832031 130.683594 229.832031 132.765625 C 229.832031 134.851562 228.136719 136.546875 226.050781 136.546875 C 223.964844 136.546875 222.269531 134.847656 222.269531 132.765625 C 222.269531 130.683594 223.964844 128.988281 226.050781 128.988281 Z M 183.492188 270.640625 C 181.410156 270.640625 179.710938 268.945312 179.710938 266.859375 C 179.710938 264.777344 181.410156 263.082031 183.492188 263.082031 C 185.578125 263.082031 187.273438 264.777344 187.273438 266.859375 C 187.273438 268.945312 185.578125 270.640625 183.492188 270.640625 Z M 255.894531 429.820312 C 253.808594 429.820312 252.113281 428.121094 252.113281 426.042969 C 252.113281 423.953125 253.808594 422.261719 255.894531 422.261719 C 257.976562 422.261719 259.675781 423.957031 259.675781 426.042969 C 259.675781 428.125 257.976562 429.820312 255.894531 429.820312 Z M 418.882812 410.402344 C 416.796875 410.402344 415.101562 408.703125 415.101562 406.621094 C 415.101562 404.535156 416.796875 402.839844 418.882812 402.839844 C 420.964844 402.839844 422.664062 404.535156 422.664062 406.621094 C 422.664062 408.703125 420.96875 410.402344 418.882812 410.402344 Z M 435.984375 272.542969 C 435.984375 290 430.480469 306.953125 420.480469 320.289062 C 415.542969 326.875 409.898438 332.796875 403.53125 338.097656 C 403.492188 338.132812 403.449219 338.15625 403.414062 338.191406 C 389.851562 349.449219 372.972656 357.859375 352.371094 363.660156 C 329.253906 357.152344 310.824219 347.355469 296.511719 333.9375 C 296.503906 333.929688 296.503906 333.925781 296.5 333.921875 C 296.496094 333.914062 296.484375 333.914062 296.480469 333.90625 C 292.035156 329.738281 287.976562 325.230469 284.308594 320.347656 C 274.28125 306.996094 268.761719 289.992188 268.761719 272.46875 L 268.761719 178.625 C 268.761719 176.171875 269.933594 173.910156 271.902344 172.5625 C 296.015625 156.082031 321.605469 145.542969 347.96875 141.234375 C 349.433594 140.996094 350.902344 140.878906 352.371094 140.878906 C 353.84375 140.878906 355.316406 140.996094 356.777344 141.234375 C 383.140625 145.539062 408.730469 156.082031 432.84375 172.5625 C 434.8125 173.910156 435.984375 176.175781 435.984375 178.625 Z M 510.1875 181.988281 C 512.269531 181.988281 513.96875 183.683594 513.96875 185.769531 C 513.96875 187.851562 512.269531 189.550781 510.1875 189.550781 C 508.101562 189.550781 506.40625 187.851562 506.40625 185.769531 C 506.40625 183.683594 508.101562 181.988281 510.1875 181.988281 Z M 510.1875 181.988281 " clip-rule="nonzero" />
    </clipPath>
    <linearGradient x1="63" gradientTransform="matrix(3.063809, 0, 0, 3.063809, 159.34998, 59.306591)" y1="-0.100006" x2="63" gradientUnits="userSpaceOnUse" y2="125.999995" id="id4">
      <stop stop-opacity="1" stop-color="rgb(0%, 76.098633%, 79.598999%)" offset="0" />
      <stop stop-opacity="1" stop-color="rgb(0%, 75.831604%, 79.319763%)" offset="0.00390625" />
      <stop stop-opacity="1" stop-color="rgb(0%, 75.564575%, 79.040527%)" offset="0.0078125" />
      <stop stop-opacity="1" stop-color="rgb(0%, 75.267029%, 78.729248%)" offset="0.0117188" />
      <stop stop-opacity="1" stop-color="rgb(0%, 74.969482%, 78.417969%)" offset="0.015625" />
      <stop stop-opacity="1" stop-color="rgb(0%, 74.671936%, 78.106689%)" offset="0.0195313" />
      <stop stop-opacity="1" stop-color="rgb(0%, 74.37439%, 77.79541%)" offset="0.0234375" />
      <stop stop-opacity="1" stop-color="rgb(0%, 74.076843%, 77.484131%)" offset="0.0273438" />
      <stop stop-opacity="1" stop-color="rgb(0%, 73.779297%, 77.172852%)" offset="0.03125" />
      <stop stop-opacity="1" stop-color="rgb(0%, 73.48175%, 76.861572%)" offset="0.0351562" />
      <stop stop-opacity="1" stop-color="rgb(0%, 73.184204%, 76.550293%)" offset="0.0390625" />
      <stop stop-opacity="1" stop-color="rgb(0%, 72.886658%, 76.239014%)" offset="0.0429688" />
      <stop stop-opacity="1" stop-color="rgb(0%, 72.589111%, 75.927734%)" offset="0.046875" />
      <stop stop-opacity="1" stop-color="rgb(0%, 72.291565%, 75.616455%)" offset="0.0507812" />
      <stop stop-opacity="1" stop-color="rgb(0%, 71.994019%, 75.305176%)" offset="0.0546875" />
      <stop stop-opacity="1" stop-color="rgb(0%, 71.696472%, 74.993896%)" offset="0.0585937" />
      <stop stop-opacity="1" stop-color="rgb(0%, 71.398926%, 74.684143%)" offset="0.0625" />
      <stop stop-opacity="1" stop-color="rgb(0%, 71.101379%, 74.372864%)" offset="0.0664063" />
      <stop stop-opacity="1" stop-color="rgb(0%, 70.805359%, 74.061584%)" offset="0.0703125" />
      <stop stop-opacity="1" stop-color="rgb(0%, 70.507812%, 73.750305%)" offset="0.0742188" />
      <stop stop-opacity="1" stop-color="rgb(0%, 70.210266%, 73.439026%)" offset="0.078125" />
      <stop stop-opacity="1" stop-color="rgb(0%, 69.91272%, 73.127747%)" offset="0.0820313" />
      <stop stop-opacity="1" stop-color="rgb(0%, 69.615173%, 72.816467%)" offset="0.0859375" />
      <stop stop-opacity="1" stop-color="rgb(0%, 69.317627%, 72.505188%)" offset="0.0898438" />
      <stop stop-opacity="1" stop-color="rgb(0%, 69.020081%, 72.193909%)" offset="0.09375" />
      <stop stop-opacity="1" stop-color="rgb(0%, 68.722534%, 71.882629%)" offset="0.0976562" />
      <stop stop-opacity="1" stop-color="rgb(0%, 68.424988%, 71.57135%)" offset="0.101563" />
      <stop stop-opacity="1" stop-color="rgb(0%, 68.127441%, 71.260071%)" offset="0.105469" />
      <stop stop-opacity="1" stop-color="rgb(0%, 67.829895%, 70.948792%)" offset="0.109375" />
      <stop stop-opacity="1" stop-color="rgb(0%, 67.532349%, 70.637512%)" offset="0.113281" />
      <stop stop-opacity="1" stop-color="rgb(0%, 67.234802%, 70.326233%)" offset="0.117188" />
      <stop stop-opacity="1" stop-color="rgb(0%, 66.937256%, 70.014954%)" offset="0.121094" />
      <stop stop-opacity="1" stop-color="rgb(0%, 66.639709%, 69.7052%)" offset="0.125" />
      <stop stop-opacity="1" stop-color="rgb(0%, 66.342163%, 69.393921%)" offset="0.128906" />
      <stop stop-opacity="1" stop-color="rgb(0%, 66.044617%, 69.082642%)" offset="0.132812" />
      <stop stop-opacity="1" stop-color="rgb(0%, 65.74707%, 68.771362%)" offset="0.136719" />
      <stop stop-opacity="1" stop-color="rgb(0%, 65.449524%, 68.460083%)" offset="0.140625" />
      <stop stop-opacity="1" stop-color="rgb(0%, 65.151978%, 68.148804%)" offset="0.144531" />
      <stop stop-opacity="1" stop-color="rgb(0%, 64.854431%, 67.837524%)" offset="0.148438" />
      <stop stop-opacity="1" stop-color="rgb(0%, 64.556885%, 67.526245%)" offset="0.152344" />
      <stop stop-opacity="1" stop-color="rgb(0%, 64.259338%, 67.214966%)" offset="0.15625" />
      <stop stop-opacity="1" stop-color="rgb(0%, 63.961792%, 66.903687%)" offset="0.160156" />
      <stop stop-opacity="1" stop-color="rgb(0%, 63.664246%, 66.592407%)" offset="0.164063" />
      <stop stop-opacity="1" stop-color="rgb(0%, 63.366699%, 66.281128%)" offset="0.167969" />
      <stop stop-opacity="1" stop-color="rgb(0%, 63.069153%, 65.969849%)" offset="0.171875" />
      <stop stop-opacity="1" stop-color="rgb(0%, 62.771606%, 65.658569%)" offset="0.175781" />
      <stop stop-opacity="1" stop-color="rgb(0%, 62.47406%, 65.34729%)" offset="0.179688" />
      <stop stop-opacity="1" stop-color="rgb(0%, 62.176514%, 65.036011%)" offset="0.183594" />
      <stop stop-opacity="1" stop-color="rgb(0%, 61.878967%, 64.726257%)" offset="0.1875" />
      <stop stop-opacity="1" stop-color="rgb(0%, 61.581421%, 64.414978%)" offset="0.191406" />
      <stop stop-opacity="1" stop-color="rgb(0%, 61.283875%, 64.103699%)" offset="0.195312" />
      <stop stop-opacity="1" stop-color="rgb(0%, 60.986328%, 63.792419%)" offset="0.199219" />
      <stop stop-opacity="1" stop-color="rgb(0%, 60.690308%, 63.48114%)" offset="0.203125" />
      <stop stop-opacity="1" stop-color="rgb(0%, 60.392761%, 63.169861%)" offset="0.207031" />
      <stop stop-opacity="1" stop-color="rgb(0%, 60.095215%, 62.858582%)" offset="0.210938" />
      <stop stop-opacity="1" stop-color="rgb(0%, 59.797668%, 62.547302%)" offset="0.214844" />
      <stop stop-opacity="1" stop-color="rgb(0%, 59.500122%, 62.236023%)" offset="0.21875" />
      <stop stop-opacity="1" stop-color="rgb(0%, 59.202576%, 61.924744%)" offset="0.222656" />
      <stop stop-opacity="1" stop-color="rgb(0%, 58.905029%, 61.613464%)" offset="0.226562" />
      <stop stop-opacity="1" stop-color="rgb(0%, 58.607483%, 61.302185%)" offset="0.230469" />
      <stop stop-opacity="1" stop-color="rgb(0%, 58.309937%, 60.990906%)" offset="0.234375" />
      <stop stop-opacity="1" stop-color="rgb(0%, 58.01239%, 60.679626%)" offset="0.238281" />
      <stop stop-opacity="1" stop-color="rgb(0%, 57.714844%, 60.368347%)" offset="0.242188" />
      <stop stop-opacity="1" stop-color="rgb(0%, 57.417297%, 60.057068%)" offset="0.246094" />
      <stop stop-opacity="1" stop-color="rgb(0%, 57.119751%, 59.747314%)" offset="0.25" />
      <stop stop-opacity="1" stop-color="rgb(0%, 56.822205%, 59.436035%)" offset="0.253906" />
      <stop stop-opacity="1" stop-color="rgb(0%, 56.524658%, 59.124756%)" offset="0.257812" />
      <stop stop-opacity="1" stop-color="rgb(0%, 56.227112%, 58.813477%)" offset="0.261719" />
      <stop stop-opacity="1" stop-color="rgb(0%, 55.929565%, 58.502197%)" offset="0.265625" />
      <stop stop-opacity="1" stop-color="rgb(0%, 55.632019%, 58.190918%)" offset="0.269531" />
      <stop stop-opacity="1" stop-color="rgb(0%, 55.334473%, 57.879639%)" offset="0.273438" />
      <stop stop-opacity="1" stop-color="rgb(0%, 55.036926%, 57.568359%)" offset="0.277344" />
      <stop stop-opacity="1" stop-color="rgb(0%, 54.73938%, 57.25708%)" offset="0.28125" />
      <stop stop-opacity="1" stop-color="rgb(0%, 54.441833%, 56.945801%)" offset="0.285156" />
      <stop stop-opacity="1" stop-color="rgb(0%, 54.144287%, 56.634521%)" offset="0.289062" />
      <stop stop-opacity="1" stop-color="rgb(0%, 53.846741%, 56.323242%)" offset="0.292969" />
      <stop stop-opacity="1" stop-color="rgb(0%, 53.549194%, 56.011963%)" offset="0.296875" />
      <stop stop-opacity="1" stop-color="rgb(0%, 53.251648%, 55.700684%)" offset="0.300781" />
      <stop stop-opacity="1" stop-color="rgb(0%, 52.954102%, 55.389404%)" offset="0.304688" />
      <stop stop-opacity="1" stop-color="rgb(0%, 52.656555%, 55.078125%)" offset="0.308594" />
      <stop stop-opacity="1" stop-color="rgb(0%, 52.359009%, 54.768372%)" offset="0.3125" />
      <stop stop-opacity="1" stop-color="rgb(0%, 52.061462%, 54.457092%)" offset="0.316406" />
      <stop stop-opacity="1" stop-color="rgb(0%, 51.763916%, 54.145813%)" offset="0.320312" />
      <stop stop-opacity="1" stop-color="rgb(0%, 51.46637%, 53.834534%)" offset="0.324219" />
      <stop stop-opacity="1" stop-color="rgb(0%, 51.168823%, 53.523254%)" offset="0.328125" />
      <stop stop-opacity="1" stop-color="rgb(0%, 50.871277%, 53.211975%)" offset="0.332031" />
      <stop stop-opacity="1" stop-color="rgb(0%, 50.575256%, 52.900696%)" offset="0.335938" />
      <stop stop-opacity="1" stop-color="rgb(0%, 50.27771%, 52.589417%)" offset="0.339844" />
      <stop stop-opacity="1" stop-color="rgb(0%, 49.980164%, 52.278137%)" offset="0.34375" />
      <stop stop-opacity="1" stop-color="rgb(0%, 49.682617%, 51.966858%)" offset="0.347656" />
      <stop stop-opacity="1" stop-color="rgb(0%, 49.385071%, 51.655579%)" offset="0.351562" />
      <stop stop-opacity="1" stop-color="rgb(0%, 49.087524%, 51.344299%)" offset="0.355469" />
      <stop stop-opacity="1" stop-color="rgb(0%, 48.789978%, 51.03302%)" offset="0.359375" />
      <stop stop-opacity="1" stop-color="rgb(0%, 48.492432%, 50.721741%)" offset="0.363281" />
      <stop stop-opacity="1" stop-color="rgb(0%, 48.194885%, 50.410461%)" offset="0.367188" />
      <stop stop-opacity="1" stop-color="rgb(0%, 47.897339%, 50.099182%)" offset="0.371094" />
      <stop stop-opacity="1" stop-color="rgb(0%, 47.599792%, 49.789429%)" offset="0.375" />
      <stop stop-opacity="1" stop-color="rgb(0%, 47.302246%, 49.478149%)" offset="0.378906" />
      <stop stop-opacity="1" stop-color="rgb(0%, 47.0047%, 49.16687%)" offset="0.382812" />
      <stop stop-opacity="1" stop-color="rgb(0%, 46.707153%, 48.855591%)" offset="0.386719" />
      <stop stop-opacity="1" stop-color="rgb(0%, 46.409607%, 48.544312%)" offset="0.390625" />
      <stop stop-opacity="1" stop-color="rgb(0%, 46.112061%, 48.233032%)" offset="0.394531" />
      <stop stop-opacity="1" stop-color="rgb(0%, 45.814514%, 47.921753%)" offset="0.398438" />
      <stop stop-opacity="1" stop-color="rgb(0%, 45.516968%, 47.610474%)" offset="0.402344" />
      <stop stop-opacity="1" stop-color="rgb(0%, 45.219421%, 47.299194%)" offset="0.40625" />
      <stop stop-opacity="1" stop-color="rgb(0%, 44.921875%, 46.987915%)" offset="0.410156" />
      <stop stop-opacity="1" stop-color="rgb(0%, 44.624329%, 46.676636%)" offset="0.414062" />
      <stop stop-opacity="1" stop-color="rgb(0%, 44.326782%, 46.365356%)" offset="0.417969" />
      <stop stop-opacity="1" stop-color="rgb(0%, 44.029236%, 46.054077%)" offset="0.421875" />
      <stop stop-opacity="1" stop-color="rgb(0%, 43.731689%, 45.742798%)" offset="0.425781" />
      <stop stop-opacity="1" stop-color="rgb(0%, 43.434143%, 45.431519%)" offset="0.429688" />
      <stop stop-opacity="1" stop-color="rgb(0%, 43.136597%, 45.120239%)" offset="0.433594" />
      <stop stop-opacity="1" stop-color="rgb(0%, 42.83905%, 44.810486%)" offset="0.4375" />
      <stop stop-opacity="1" stop-color="rgb(0%, 42.541504%, 44.499207%)" offset="0.441406" />
      <stop stop-opacity="1" stop-color="rgb(0%, 42.243958%, 44.187927%)" offset="0.445312" />
      <stop stop-opacity="1" stop-color="rgb(0%, 41.946411%, 43.876648%)" offset="0.449219" />
      <stop stop-opacity="1" stop-color="rgb(0%, 41.648865%, 43.565369%)" offset="0.453125" />
      <stop stop-opacity="1" stop-color="rgb(0%, 41.351318%, 43.254089%)" offset="0.457031" />
      <stop stop-opacity="1" stop-color="rgb(0%, 41.053772%, 42.94281%)" offset="0.460938" />
      <stop stop-opacity="1" stop-color="rgb(0%, 40.756226%, 42.631531%)" offset="0.464844" />
      <stop stop-opacity="1" stop-color="rgb(0%, 40.460205%, 42.320251%)" offset="0.46875" />
      <stop stop-opacity="1" stop-color="rgb(0%, 40.162659%, 42.008972%)" offset="0.472656" />
      <stop stop-opacity="1" stop-color="rgb(0%, 39.865112%, 41.697693%)" offset="0.476562" />
      <stop stop-opacity="1" stop-color="rgb(0%, 39.567566%, 41.386414%)" offset="0.480469" />
      <stop stop-opacity="1" stop-color="rgb(0%, 39.27002%, 41.075134%)" offset="0.484375" />
      <stop stop-opacity="1" stop-color="rgb(0%, 38.972473%, 40.763855%)" offset="0.488281" />
      <stop stop-opacity="1" stop-color="rgb(0%, 38.674927%, 40.452576%)" offset="0.492188" />
      <stop stop-opacity="1" stop-color="rgb(0%, 38.37738%, 40.141296%)" offset="0.496094" />
      <stop stop-opacity="1" stop-color="rgb(0%, 38.079834%, 39.831543%)" offset="0.5" />
      <stop stop-opacity="1" stop-color="rgb(0%, 37.782288%, 39.520264%)" offset="0.503906" />
      <stop stop-opacity="1" stop-color="rgb(0%, 37.484741%, 39.208984%)" offset="0.507813" />
      <stop stop-opacity="1" stop-color="rgb(0%, 37.187195%, 38.897705%)" offset="0.511719" />
      <stop stop-opacity="1" stop-color="rgb(0%, 36.889648%, 38.586426%)" offset="0.515625" />
      <stop stop-opacity="1" stop-color="rgb(0%, 36.592102%, 38.275146%)" offset="0.519531" />
      <stop stop-opacity="1" stop-color="rgb(0%, 36.294556%, 37.963867%)" offset="0.523438" />
      <stop stop-opacity="1" stop-color="rgb(0%, 35.997009%, 37.652588%)" offset="0.527344" />
      <stop stop-opacity="1" stop-color="rgb(0%, 35.699463%, 37.341309%)" offset="0.53125" />
      <stop stop-opacity="1" stop-color="rgb(0%, 35.401917%, 37.030029%)" offset="0.535156" />
      <stop stop-opacity="1" stop-color="rgb(0%, 35.10437%, 36.71875%)" offset="0.539063" />
      <stop stop-opacity="1" stop-color="rgb(0%, 34.806824%, 36.407471%)" offset="0.542969" />
      <stop stop-opacity="1" stop-color="rgb(0%, 34.509277%, 36.096191%)" offset="0.546875" />
      <stop stop-opacity="1" stop-color="rgb(0%, 34.211731%, 35.784912%)" offset="0.550781" />
      <stop stop-opacity="1" stop-color="rgb(0%, 33.914185%, 35.473633%)" offset="0.554688" />
      <stop stop-opacity="1" stop-color="rgb(0%, 33.616638%, 35.162354%)" offset="0.558594" />
      <stop stop-opacity="1" stop-color="rgb(0%, 33.319092%, 34.8526%)" offset="0.5625" />
      <stop stop-opacity="1" stop-color="rgb(0%, 33.021545%, 34.541321%)" offset="0.566406" />
      <stop stop-opacity="1" stop-color="rgb(0%, 32.723999%, 34.230042%)" offset="0.570313" />
      <stop stop-opacity="1" stop-color="rgb(0%, 32.426453%, 33.918762%)" offset="0.574219" />
      <stop stop-opacity="1" stop-color="rgb(0%, 32.128906%, 33.607483%)" offset="0.578125" />
      <stop stop-opacity="1" stop-color="rgb(0%, 31.83136%, 33.296204%)" offset="0.582031" />
      <stop stop-opacity="1" stop-color="rgb(0%, 31.533813%, 32.984924%)" offset="0.585938" />
      <stop stop-opacity="1" stop-color="rgb(0%, 31.236267%, 32.673645%)" offset="0.589844" />
      <stop stop-opacity="1" stop-color="rgb(0%, 30.938721%, 32.362366%)" offset="0.59375" />
      <stop stop-opacity="1" stop-color="rgb(0%, 30.641174%, 32.051086%)" offset="0.597656" />
      <stop stop-opacity="1" stop-color="rgb(0%, 30.345154%, 31.739807%)" offset="0.601563" />
      <stop stop-opacity="1" stop-color="rgb(0%, 30.047607%, 31.428528%)" offset="0.605469" />
      <stop stop-opacity="1" stop-color="rgb(0%, 29.750061%, 31.117249%)" offset="0.609375" />
      <stop stop-opacity="1" stop-color="rgb(0%, 29.452515%, 30.805969%)" offset="0.613281" />
      <stop stop-opacity="1" stop-color="rgb(0%, 29.154968%, 30.49469%)" offset="0.617188" />
      <stop stop-opacity="1" stop-color="rgb(0%, 28.857422%, 30.183411%)" offset="0.621094" />
      <stop stop-opacity="1" stop-color="rgb(0%, 28.559875%, 29.873657%)" offset="0.625" />
      <stop stop-opacity="1" stop-color="rgb(0%, 28.262329%, 29.562378%)" offset="0.628906" />
      <stop stop-opacity="1" stop-color="rgb(0%, 27.964783%, 29.251099%)" offset="0.632813" />
      <stop stop-opacity="1" stop-color="rgb(0%, 27.667236%, 28.939819%)" offset="0.636719" />
      <stop stop-opacity="1" stop-color="rgb(0%, 27.36969%, 28.62854%)" offset="0.640625" />
      <stop stop-opacity="1" stop-color="rgb(0%, 27.072144%, 28.317261%)" offset="0.644531" />
      <stop stop-opacity="1" stop-color="rgb(0%, 26.774597%, 28.005981%)" offset="0.648438" />
      <stop stop-opacity="1" stop-color="rgb(0%, 26.477051%, 27.694702%)" offset="0.652344" />
      <stop stop-opacity="1" stop-color="rgb(0%, 26.179504%, 27.383423%)" offset="0.65625" />
      <stop stop-opacity="1" stop-color="rgb(0%, 25.881958%, 27.072144%)" offset="0.660156" />
      <stop stop-opacity="1" stop-color="rgb(0%, 25.584412%, 26.760864%)" offset="0.664062" />
      <stop stop-opacity="1" stop-color="rgb(0%, 25.286865%, 26.449585%)" offset="0.667969" />
      <stop stop-opacity="1" stop-color="rgb(0%, 24.989319%, 26.138306%)" offset="0.671875" />
      <stop stop-opacity="1" stop-color="rgb(0%, 24.691772%, 25.827026%)" offset="0.675781" />
      <stop stop-opacity="1" stop-color="rgb(0%, 24.394226%, 25.515747%)" offset="0.679688" />
      <stop stop-opacity="1" stop-color="rgb(0%, 24.09668%, 25.204468%)" offset="0.683594" />
      <stop stop-opacity="1" stop-color="rgb(0%, 23.799133%, 24.894714%)" offset="0.6875" />
      <stop stop-opacity="1" stop-color="rgb(0%, 23.501587%, 24.583435%)" offset="0.691406" />
      <stop stop-opacity="1" stop-color="rgb(0%, 23.204041%, 24.272156%)" offset="0.695313" />
      <stop stop-opacity="1" stop-color="rgb(0%, 22.906494%, 23.960876%)" offset="0.699219" />
      <stop stop-opacity="1" stop-color="rgb(0%, 22.608948%, 23.649597%)" offset="0.703125" />
      <stop stop-opacity="1" stop-color="rgb(0%, 22.311401%, 23.338318%)" offset="0.707031" />
      <stop stop-opacity="1" stop-color="rgb(0%, 22.013855%, 23.027039%)" offset="0.710938" />
      <stop stop-opacity="1" stop-color="rgb(0%, 21.716309%, 22.715759%)" offset="0.714844" />
      <stop stop-opacity="1" stop-color="rgb(0%, 21.418762%, 22.40448%)" offset="0.71875" />
      <stop stop-opacity="1" stop-color="rgb(0%, 21.121216%, 22.093201%)" offset="0.722656" />
      <stop stop-opacity="1" stop-color="rgb(0%, 20.823669%, 21.781921%)" offset="0.726562" />
      <stop stop-opacity="1" stop-color="rgb(0%, 20.526123%, 21.470642%)" offset="0.730469" />
      <stop stop-opacity="1" stop-color="rgb(0%, 20.230103%, 21.159363%)" offset="0.734375" />
      <stop stop-opacity="1" stop-color="rgb(0%, 19.932556%, 20.848083%)" offset="0.738281" />
      <stop stop-opacity="1" stop-color="rgb(0%, 19.63501%, 20.536804%)" offset="0.742188" />
      <stop stop-opacity="1" stop-color="rgb(0%, 19.337463%, 20.225525%)" offset="0.746094" />
      <stop stop-opacity="1" stop-color="rgb(0%, 19.039917%, 19.915771%)" offset="0.75" />
      <stop stop-opacity="1" stop-color="rgb(0%, 18.742371%, 19.604492%)" offset="0.753906" />
      <stop stop-opacity="1" stop-color="rgb(0%, 18.444824%, 19.293213%)" offset="0.757813" />
      <stop stop-opacity="1" stop-color="rgb(0%, 18.147278%, 18.981934%)" offset="0.761719" />
      <stop stop-opacity="1" stop-color="rgb(0%, 17.849731%, 18.670654%)" offset="0.765625" />
      <stop stop-opacity="1" stop-color="rgb(0%, 17.552185%, 18.359375%)" offset="0.769531" />
      <stop stop-opacity="1" stop-color="rgb(0%, 17.254639%, 18.048096%)" offset="0.773438" />
      <stop stop-opacity="1" stop-color="rgb(0%, 16.957092%, 17.736816%)" offset="0.777344" />
      <stop stop-opacity="1" stop-color="rgb(0%, 16.659546%, 17.425537%)" offset="0.78125" />
      <stop stop-opacity="1" stop-color="rgb(0%, 16.362%, 17.114258%)" offset="0.785156" />
      <stop stop-opacity="1" stop-color="rgb(0%, 16.064453%, 16.802979%)" offset="0.789062" />
      <stop stop-opacity="1" stop-color="rgb(0%, 15.766907%, 16.491699%)" offset="0.792969" />
      <stop stop-opacity="1" stop-color="rgb(0%, 15.46936%, 16.18042%)" offset="0.796875" />
      <stop stop-opacity="1" stop-color="rgb(0%, 15.171814%, 15.869141%)" offset="0.800781" />
      <stop stop-opacity="1" stop-color="rgb(0%, 14.874268%, 15.557861%)" offset="0.804688" />
      <stop stop-opacity="1" stop-color="rgb(0%, 14.576721%, 15.246582%)" offset="0.808594" />
      <stop stop-opacity="1" stop-color="rgb(0%, 14.279175%, 14.936829%)" offset="0.8125" />
      <stop stop-opacity="1" stop-color="rgb(0%, 13.981628%, 14.625549%)" offset="0.816406" />
      <stop stop-opacity="1" stop-color="rgb(0%, 13.684082%, 14.31427%)" offset="0.820313" />
      <stop stop-opacity="1" stop-color="rgb(0%, 13.386536%, 14.002991%)" offset="0.824219" />
      <stop stop-opacity="1" stop-color="rgb(0%, 13.088989%, 13.691711%)" offset="0.828125" />
      <stop stop-opacity="1" stop-color="rgb(0%, 12.791443%, 13.380432%)" offset="0.832031" />
      <stop stop-opacity="1" stop-color="rgb(0%, 12.493896%, 13.069153%)" offset="0.835938" />
      <stop stop-opacity="1" stop-color="rgb(0%, 12.19635%, 12.757874%)" offset="0.839844" />
      <stop stop-opacity="1" stop-color="rgb(0%, 11.898804%, 12.446594%)" offset="0.84375" />
      <stop stop-opacity="1" stop-color="rgb(0%, 11.601257%, 12.135315%)" offset="0.847656" />
      <stop stop-opacity="1" stop-color="rgb(0%, 11.303711%, 11.824036%)" offset="0.851563" />
      <stop stop-opacity="1" stop-color="rgb(0%, 11.006165%, 11.512756%)" offset="0.855469" />
      <stop stop-opacity="1" stop-color="rgb(0%, 10.708618%, 11.201477%)" offset="0.859375" />
      <stop stop-opacity="1" stop-color="rgb(0%, 10.411072%, 10.890198%)" offset="0.863281" />
      <stop stop-opacity="1" stop-color="rgb(0%, 10.115051%, 10.578918%)" offset="0.867188" />
      <stop stop-opacity="1" stop-color="rgb(0%, 9.817505%, 10.267639%)" offset="0.871094" />
      <stop stop-opacity="1" stop-color="rgb(0%, 9.519958%, 9.957886%)" offset="0.875" />
      <stop stop-opacity="1" stop-color="rgb(0%, 9.222412%, 9.646606%)" offset="0.878906" />
      <stop stop-opacity="1" stop-color="rgb(0%, 8.924866%, 9.335327%)" offset="0.882813" />
      <stop stop-opacity="1" stop-color="rgb(0%, 8.627319%, 9.024048%)" offset="0.886719" />
      <stop stop-opacity="1" stop-color="rgb(0%, 8.329773%, 8.712769%)" offset="0.890625" />
      <stop stop-opacity="1" stop-color="rgb(0%, 8.032227%, 8.401489%)" offset="0.894531" />
      <stop stop-opacity="1" stop-color="rgb(0%, 7.73468%, 8.09021%)" offset="0.898438" />
      <stop stop-opacity="1" stop-color="rgb(0%, 7.437134%, 7.778931%)" offset="0.902344" />
      <stop stop-opacity="1" stop-color="rgb(0%, 7.139587%, 7.467651%)" offset="0.90625" />
      <stop stop-opacity="1" stop-color="rgb(0%, 6.842041%, 7.156372%)" offset="0.910156" />
      <stop stop-opacity="1" stop-color="rgb(0%, 6.544495%, 6.845093%)" offset="0.914063" />
      <stop stop-opacity="1" stop-color="rgb(0%, 6.246948%, 6.533813%)" offset="0.917969" />
      <stop stop-opacity="1" stop-color="rgb(0%, 5.949402%, 6.222534%)" offset="0.921875" />
      <stop stop-opacity="1" stop-color="rgb(0%, 5.651855%, 5.911255%)" offset="0.925781" />
      <stop stop-opacity="1" stop-color="rgb(0%, 5.354309%, 5.599976%)" offset="0.929688" />
      <stop stop-opacity="1" stop-color="rgb(0%, 5.056763%, 5.288696%)" offset="0.933594" />
      <stop stop-opacity="1" stop-color="rgb(0%, 4.759216%, 4.978943%)" offset="0.9375" />
      <stop stop-opacity="1" stop-color="rgb(0%, 4.46167%, 4.667664%)" offset="0.941406" />
      <stop stop-opacity="1" stop-color="rgb(0%, 4.164124%, 4.356384%)" offset="0.945313" />
      <stop stop-opacity="1" stop-color="rgb(0%, 3.866577%, 4.045105%)" offset="0.949219" />
      <stop stop-opacity="1" stop-color="rgb(0%, 3.569031%, 3.733826%)" offset="0.953125" />
      <stop stop-opacity="1" stop-color="rgb(0%, 3.271484%, 3.422546%)" offset="0.957031" />
      <stop stop-opacity="1" stop-color="rgb(0%, 2.973938%, 3.111267%)" offset="0.960938" />
      <stop stop-opacity="1" stop-color="rgb(0%, 2.676392%, 2.799988%)" offset="0.964844" />
      <stop stop-opacity="1" stop-color="rgb(0%, 2.378845%, 2.488708%)" offset="0.96875" />
      <stop stop-opacity="1" stop-color="rgb(0%, 2.081299%, 2.177429%)" offset="0.972656" />
      <stop stop-opacity="1" stop-color="rgb(0%, 1.783752%, 1.86615%)" offset="0.976563" />
      <stop stop-opacity="1" stop-color="rgb(0%, 1.486206%, 1.554871%)" offset="0.980469" />
      <stop stop-opacity="1" stop-color="rgb(0%, 1.18866%, 1.243591%)" offset="0.984375" />
      <stop stop-opacity="1" stop-color="rgb(0%, 0.891113%, 0.932312%)" offset="0.988281" />
      <stop stop-opacity="1" stop-color="rgb(0%, 0.593567%, 0.621033%)" offset="0.992188" />
      <stop stop-opacity="1" stop-color="rgb(0%, 0.296021%, 0.309753%)" offset="0.996094" />
      <stop stop-opacity="1" stop-color="rgb(0%, 0%, 0%)" offset="1" />
    </linearGradient>
  </defs>
  <g clip-path="url(#id1)">
    <path fill="#262626" d="M 0.59375 0 L 704.40625 0 L 704.40625 597.488281 L 0.59375 597.488281 Z M 0.59375 0 " fill-opacity="1" fill-rule="nonzero" />
    <path fill="#262626" d="M 0.59375 0 L 704.40625 0 L 704.40625 590 L 0.59375 590 Z M 0.59375 0 " fill-opacity="1" fill-rule="nonzero" />
    <path fill="#262626" d="M 0.59375 0 L 704.40625 0 L 704.40625 590 L 0.59375 590 Z M 0.59375 0 " fill-opacity="1" fill-rule="nonzero" />
    <path fill="#262626" d="M 0.59375 0 L 704.40625 0 L 704.40625 590 L 0.59375 590 Z M 0.59375 0 " fill-opacity="1" fill-rule="nonzero" />
  </g>
  <g clip-path="url(#id2)">
    <g clip-path="url(#id3)">
      <path fill="url(#id4)" d="M 159.351562 59 L 159.351562 445.347656 L 545.390625 445.347656 L 545.390625 59 Z M 159.351562 59 " fill-rule="nonzero" />
    </g>
  </g>
  <g fill="#000000" fill-opacity="1">
    <g transform="translate(159.296547, 510.947734)">
      <g />
    </g>
  </g>
  <g fill="#000000" fill-opacity="1">
    <g transform="translate(170.874408, 510.947734)">
      <g>
        <path d="M 0.84375 -37.21875 L 11.359375 -37.21875 L 11.359375 -34.765625 L 7.875 -34.765625 L 7.875 0 L 4.734375 0 L 4.734375 -34.765625 L 0.84375 -34.765625 Z M 0.84375 -37.21875 " />
      </g>
    </g>
  </g>
  <g fill="#000000" fill-opacity="1">
    <g transform="translate(187.53906, 510.947734)">
      <g>
        <path d="M 11.609375 -18.546875 L 11.609375 -22.796875 C 11.609375 -25.179688 11.515625 -26.738281 11.328125 -27.46875 C 11.023438 -28.707031 10.253906 -29.328125 9.015625 -29.328125 C 7.347656 -29.328125 6.359375 -28.238281 6.046875 -26.0625 C 5.921875 -25.164062 5.859375 -24.078125 5.859375 -22.796875 C 5.859375 -22.671875 5.859375 -22.546875 5.859375 -22.421875 L 5.859375 -18.546875 Z M 2.703125 -21.4375 C 2.703125 -25.132812 3.039062 -27.675781 3.71875 -29.0625 C 4.425781 -30.4375 5.375 -31.332031 6.5625 -31.75 C 7.257812 -31.988281 8.070312 -32.109375 9 -32.109375 C 9.925781 -32.109375 10.726562 -31.992188 11.40625 -31.765625 C 12.425781 -31.421875 13.289062 -30.5 14 -29 C 14.507812 -27.9375 14.765625 -25.332031 14.765625 -21.1875 L 14.765625 -15.90625 L 5.859375 -15.90625 L 5.859375 -9.515625 C 5.859375 -6.242188 6.097656 -4.238281 6.578125 -3.5 C 7.066406 -2.757812 7.785156 -2.390625 8.734375 -2.390625 C 9.691406 -2.390625 10.363281 -2.6875 10.75 -3.28125 C 11.132812 -3.875 11.375 -4.640625 11.46875 -5.578125 C 11.5625 -6.515625 11.609375 -7.785156 11.609375 -9.390625 L 11.609375 -11.765625 L 14.671875 -11.765625 L 14.671875 -10.71875 C 14.671875 -7.59375 14.566406 -5.453125 14.359375 -4.296875 C 13.828125 -1.179688 12.085938 0.375 9.140625 0.375 C 6.566406 0.375 4.859375 -0.410156 4.015625 -1.984375 C 3.441406 -3.023438 3.078125 -4.21875 2.921875 -5.5625 C 2.773438 -6.90625 2.703125 -8.65625 2.703125 -10.8125 Z M 2.703125 -21.4375 " />
      </g>
    </g>
  </g>
  <g fill="#000000" fill-opacity="1">
    <g transform="translate(209.2796, 510.947734)">
      <g>
        <path d="M 2.703125 -21.734375 C 2.703125 -25.265625 3.054688 -27.71875 3.765625 -29.09375 C 4.472656 -30.476562 5.414062 -31.367188 6.59375 -31.765625 C 7.289062 -31.992188 8.226562 -32.109375 9.40625 -32.109375 C 10.59375 -32.109375 11.679688 -31.78125 12.671875 -31.125 C 13.304688 -30.707031 13.816406 -29.898438 14.203125 -28.703125 C 14.597656 -27.503906 14.796875 -25.128906 14.796875 -21.578125 L 14.796875 -20.578125 L 11.609375 -20.578125 L 11.609375 -22.515625 C 11.609375 -24.972656 11.523438 -26.566406 11.359375 -27.296875 C 11.046875 -28.566406 10.265625 -29.203125 9.015625 -29.203125 C 7.472656 -29.203125 6.519531 -28.316406 6.15625 -26.546875 C 5.957031 -25.585938 5.859375 -24.191406 5.859375 -22.359375 L 5.859375 -9.625 C 5.859375 -6.757812 5.96875 -5.054688 6.1875 -4.515625 C 6.40625 -3.972656 6.628906 -3.5625 6.859375 -3.28125 C 7.242188 -2.769531 7.945312 -2.515625 8.96875 -2.515625 C 10 -2.515625 10.6875 -2.960938 11.03125 -3.859375 C 11.382812 -4.753906 11.566406 -5.726562 11.578125 -6.78125 C 11.597656 -7.84375 11.609375 -8.75 11.609375 -9.5 L 11.609375 -11.890625 L 14.796875 -11.890625 L 14.796875 -10.9375 C 14.796875 -7.757812 14.691406 -5.585938 14.484375 -4.421875 C 13.929688 -1.222656 12.148438 0.375 9.140625 0.375 C 6.566406 0.375 4.859375 -0.410156 4.015625 -1.984375 C 3.441406 -3.046875 3.078125 -4.253906 2.921875 -5.609375 C 2.773438 -6.960938 2.703125 -8.695312 2.703125 -10.8125 Z M 2.703125 -21.734375 " />
      </g>
    </g>
  </g>
  <g fill="#000000" fill-opacity="1">
    <g transform="translate(230.470254, 510.947734)">
      <g>
        <path d="M 10.609375 -29.203125 C 7.910156 -29.203125 6.550781 -27.863281 6.53125 -25.1875 L 6.53125 0 L 3.390625 0 L 3.390625 -37.703125 L 6.53125 -37.703125 L 6.53125 -28.609375 C 6.8125 -29.554688 7.441406 -30.378906 8.421875 -31.078125 C 9.398438 -31.773438 10.546875 -32.125 11.859375 -32.125 C 13.171875 -32.125 14.242188 -31.582031 15.078125 -30.5 C 15.921875 -29.414062 16.34375 -27.785156 16.34375 -25.609375 L 16.34375 0 L 13.171875 0 L 13.171875 -25.40625 C 13.171875 -26.84375 12.921875 -27.832031 12.421875 -28.375 C 11.921875 -28.925781 11.316406 -29.203125 10.609375 -29.203125 Z M 10.609375 -29.203125 " />
      </g>
    </g>
  </g>
  <g fill="#000000" fill-opacity="1">
    <g transform="translate(254.452645, 510.947734)">
      <g>
        <path d="M 6.53125 -28.609375 C 6.8125 -29.554688 7.4375 -30.378906 8.40625 -31.078125 C 9.375 -31.773438 10.507812 -32.125 11.8125 -32.125 C 13.125 -32.125 14.203125 -31.582031 15.046875 -30.5 C 15.898438 -29.414062 16.328125 -27.785156 16.328125 -25.609375 L 16.328125 0 L 13.171875 0 L 13.171875 -25.859375 C 13.171875 -27.085938 12.890625 -27.972656 12.328125 -28.515625 C 11.773438 -29.054688 11.035156 -29.328125 10.109375 -29.328125 C 7.722656 -29.328125 6.53125 -28.148438 6.53125 -25.796875 L 6.53125 0 L 3.390625 0 L 3.390625 -31.71875 L 6.53125 -31.71875 Z M 6.53125 -28.609375 " />
      </g>
    </g>
  </g>
  <g fill="#000000" fill-opacity="1">
    <g transform="translate(278.413885, 510.947734)">
      <g>
        <path d="M 12.015625 -22.265625 C 12.015625 -25.898438 11.535156 -28.09375 10.578125 -28.84375 C 10.148438 -29.164062 9.640625 -29.328125 9.046875 -29.328125 C 7.441406 -29.328125 6.484375 -28.429688 6.171875 -26.640625 C 5.960938 -25.535156 5.859375 -24.078125 5.859375 -22.265625 L 5.859375 -9.796875 C 5.859375 -6.679688 6.117188 -4.664062 6.640625 -3.75 C 7.171875 -2.84375 8.015625 -2.390625 9.171875 -2.390625 C 10.328125 -2.390625 11.085938 -3.035156 11.453125 -4.328125 C 11.828125 -5.617188 12.015625 -7.441406 12.015625 -9.796875 Z M 2.703125 -21.53125 C 2.703125 -25.195312 3.046875 -27.71875 3.734375 -29.09375 C 4.429688 -30.476562 5.375 -31.367188 6.5625 -31.765625 C 7.257812 -31.992188 8.046875 -32.109375 8.921875 -32.109375 C 12.492188 -32.109375 14.5 -30.164062 14.9375 -26.28125 C 15.082031 -24.957031 15.15625 -23.375 15.15625 -21.53125 L 15.15625 -10.890625 C 15.15625 -8.390625 15.101562 -6.773438 15 -6.046875 C 14.894531 -5.316406 14.796875 -4.679688 14.703125 -4.140625 C 14.140625 -1.128906 12.175781 0.375 8.8125 0.375 C 7.445312 0.375 6.359375 0.09375 5.546875 -0.46875 C 3.992188 -1.539062 3.097656 -3.503906 2.859375 -6.359375 C 2.753906 -7.628906 2.703125 -9.140625 2.703125 -10.890625 Z M 2.703125 -21.53125 " />
      </g>
    </g>
  </g>
  <g fill="#000000" fill-opacity="1">
    <g transform="translate(300.746618, 510.947734)">
      <g>
        <path d="M 3.390625 -37.703125 L 6.5625 -37.703125 L 6.5625 0 L 3.390625 0 Z M 3.390625 -37.703125 " />
      </g>
    </g>
  </g>
  <g fill="#000000" fill-opacity="1">
    <g transform="translate(315.148273, 510.947734)">
      <g>
        <path d="M 12.015625 -22.265625 C 12.015625 -25.898438 11.535156 -28.09375 10.578125 -28.84375 C 10.148438 -29.164062 9.640625 -29.328125 9.046875 -29.328125 C 7.441406 -29.328125 6.484375 -28.429688 6.171875 -26.640625 C 5.960938 -25.535156 5.859375 -24.078125 5.859375 -22.265625 L 5.859375 -9.796875 C 5.859375 -6.679688 6.117188 -4.664062 6.640625 -3.75 C 7.171875 -2.84375 8.015625 -2.390625 9.171875 -2.390625 C 10.328125 -2.390625 11.085938 -3.035156 11.453125 -4.328125 C 11.828125 -5.617188 12.015625 -7.441406 12.015625 -9.796875 Z M 2.703125 -21.53125 C 2.703125 -25.195312 3.046875 -27.71875 3.734375 -29.09375 C 4.429688 -30.476562 5.375 -31.367188 6.5625 -31.765625 C 7.257812 -31.992188 8.046875 -32.109375 8.921875 -32.109375 C 12.492188 -32.109375 14.5 -30.164062 14.9375 -26.28125 C 15.082031 -24.957031 15.15625 -23.375 15.15625 -21.53125 L 15.15625 -10.890625 C 15.15625 -8.390625 15.101562 -6.773438 15 -6.046875 C 14.894531 -5.316406 14.796875 -4.679688 14.703125 -4.140625 C 14.140625 -1.128906 12.175781 0.375 8.8125 0.375 C 7.445312 0.375 6.359375 0.09375 5.546875 -0.46875 C 3.992188 -1.539062 3.097656 -3.503906 2.859375 -6.359375 C 2.753906 -7.628906 2.703125 -9.140625 2.703125 -10.890625 Z M 2.703125 -21.53125 " />
      </g>
    </g>
  </g>
  <g fill="#000000" fill-opacity="1">
    <g transform="translate(337.481005, 510.947734)">
      <g>
        <path d="M 11.90625 -22.203125 C 11.90625 -25.378906 11.65625 -27.359375 11.15625 -28.140625 C 10.65625 -28.929688 9.894531 -29.328125 8.875 -29.328125 C 7.851562 -29.328125 7.117188 -28.945312 6.671875 -28.1875 C 6.222656 -27.425781 5.96875 -26.484375 5.90625 -25.359375 C 5.84375 -24.234375 5.8125 -23.195312 5.8125 -22.25 L 5.8125 -12.921875 C 5.8125 -10.203125 6.046875 -8.265625 6.515625 -7.109375 C 6.992188 -5.960938 7.878906 -5.390625 9.171875 -5.390625 C 9.847656 -5.410156 10.375 -5.601562 10.75 -5.96875 C 11.519531 -6.75 11.90625 -9.085938 11.90625 -12.984375 Z M 2.671875 -21.421875 C 2.671875 -24.554688 3.125 -27.117188 4.03125 -29.109375 C 4.9375 -31.109375 6.332031 -32.109375 8.21875 -32.109375 C 10.113281 -32.109375 11.34375 -31.359375 11.90625 -29.859375 L 11.90625 -31.71875 L 15.0625 -31.71875 L 15.0625 -2.046875 C 15.0625 1.097656 13.890625 3.21875 11.546875 4.3125 C 10.628906 4.75 9.671875 4.96875 8.671875 4.96875 C 7.671875 4.96875 6.625 4.796875 5.53125 4.453125 C 4.4375 4.117188 3.523438 3.671875 2.796875 3.109375 L 4 0.671875 C 5.375 1.703125 6.925781 2.21875 8.65625 2.21875 C 9.738281 2.21875 10.550781 1.859375 11.09375 1.140625 C 11.632812 0.429688 11.90625 -0.507812 11.90625 -1.6875 L 11.90625 -5.1875 C 11.476562 -4.238281 10.941406 -3.582031 10.296875 -3.21875 C 9.660156 -2.863281 8.90625 -2.6875 8.03125 -2.6875 C 5.613281 -2.6875 4.046875 -4.050781 3.328125 -6.78125 C 2.890625 -8.507812 2.671875 -10.703125 2.671875 -13.359375 Z M 2.671875 -21.421875 " />
      </g>
    </g>
  </g>
  <g fill="#000000" fill-opacity="1">
    <g transform="translate(360.130981, 510.947734)">
      <g>
        <path d="M 11.4375 -31.71875 L 14.59375 -31.71875 L 9.53125 -0.0625 C 9.207031 2.101562 8.832031 3.445312 8.40625 3.96875 C 7.988281 4.5 7.515625 4.804688 6.984375 4.890625 C 6.460938 4.984375 5.925781 5.03125 5.375 5.03125 L 2.75 5.03125 L 2.75 2.328125 L 3.90625 2.328125 C 5.414062 2.328125 6.285156 2.25 6.515625 2.09375 C 6.710938 1.894531 6.8125 1.613281 6.8125 1.25 C 6.8125 0.882812 6.789062 0.570312 6.75 0.3125 C 6.707031 0.0625 6.648438 -0.304688 6.578125 -0.796875 L 1.296875 -31.71875 L 4.46875 -31.71875 L 6.984375 -14.953125 L 8 -6.328125 L 8.265625 -6.328125 L 9.171875 -14.953125 Z M 11.4375 -31.71875 " />
      </g>
    </g>
  </g>
  <g fill="#000000" fill-opacity="1">
    <g transform="translate(380.094965, 510.947734)">
      <g />
    </g>
  </g>
  <g fill="#000000" fill-opacity="1">
    <g transform="translate(391.683731, 510.947734)">
      <g>
        <path d="M 2.078125 -31.515625 C 2.285156 -33.523438 2.878906 -35.054688 3.859375 -36.109375 C 4.835938 -37.160156 6.367188 -37.6875 8.453125 -37.6875 C 10.546875 -37.6875 12 -37.164062 12.8125 -36.125 C 13.269531 -35.5625 13.625 -35 13.875 -34.4375 C 14.40625 -33.289062 14.679688 -30.566406 14.703125 -26.265625 L 14.703125 -24.171875 L 11.46875 -24.171875 L 11.46875 -26.5 C 11.46875 -29.769531 11.359375 -31.75 11.140625 -32.4375 C 10.929688 -33.132812 10.710938 -33.65625 10.484375 -34 C 10.078125 -34.65625 9.347656 -34.984375 8.296875 -34.984375 C 6.148438 -34.984375 5.078125 -32.988281 5.078125 -29 C 5.078125 -27.601562 5.207031 -26.65625 5.46875 -26.15625 C 5.738281 -25.65625 5.941406 -25.257812 6.078125 -24.96875 C 6.210938 -24.6875 7.113281 -23.71875 8.78125 -22.0625 L 10.8125 -20 C 13.8125 -16.914062 15.3125 -13.375 15.3125 -9.375 C 15.3125 -5.382812 14.734375 -2.753906 13.578125 -1.484375 C 12.429688 -0.210938 10.734375 0.421875 8.484375 0.421875 C 5.015625 0.421875 3.019531 -1.671875 2.5 -5.859375 C 2.3125 -7.265625 2.21875 -9 2.21875 -11.0625 L 2.21875 -14.9375 L 5.4375 -14.9375 L 5.4375 -11.125 C 5.4375 -7.769531 5.65625 -5.457031 6.09375 -4.1875 C 6.539062 -2.914062 7.445312 -2.28125 8.8125 -2.28125 C 10.1875 -2.28125 11.054688 -2.691406 11.421875 -3.515625 C 11.796875 -4.347656 12 -5.347656 12.03125 -6.515625 C 12.070312 -7.679688 12.09375 -8.9375 12.09375 -10.28125 C 12.09375 -13.039062 11 -15.484375 8.8125 -17.609375 L 6.65625 -19.671875 C 4.769531 -21.515625 3.507812 -23.066406 2.875 -24.328125 C 2.238281 -25.585938 1.921875 -26.867188 1.921875 -28.171875 C 1.921875 -29.484375 1.972656 -30.597656 2.078125 -31.515625 Z M 2.078125 -31.515625 " />
      </g>
    </g>
  </g>
  <g fill="#000000" fill-opacity="1">
    <g transform="translate(412.958987, 510.947734)">
      <g>
        <path d="M 11.609375 -18.546875 L 11.609375 -22.796875 C 11.609375 -25.179688 11.515625 -26.738281 11.328125 -27.46875 C 11.023438 -28.707031 10.253906 -29.328125 9.015625 -29.328125 C 7.347656 -29.328125 6.359375 -28.238281 6.046875 -26.0625 C 5.921875 -25.164062 5.859375 -24.078125 5.859375 -22.796875 C 5.859375 -22.671875 5.859375 -22.546875 5.859375 -22.421875 L 5.859375 -18.546875 Z M 2.703125 -21.4375 C 2.703125 -25.132812 3.039062 -27.675781 3.71875 -29.0625 C 4.425781 -30.4375 5.375 -31.332031 6.5625 -31.75 C 7.257812 -31.988281 8.070312 -32.109375 9 -32.109375 C 9.925781 -32.109375 10.726562 -31.992188 11.40625 -31.765625 C 12.425781 -31.421875 13.289062 -30.5 14 -29 C 14.507812 -27.9375 14.765625 -25.332031 14.765625 -21.1875 L 14.765625 -15.90625 L 5.859375 -15.90625 L 5.859375 -9.515625 C 5.859375 -6.242188 6.097656 -4.238281 6.578125 -3.5 C 7.066406 -2.757812 7.785156 -2.390625 8.734375 -2.390625 C 9.691406 -2.390625 10.363281 -2.6875 10.75 -3.28125 C 11.132812 -3.875 11.375 -4.640625 11.46875 -5.578125 C 11.5625 -6.515625 11.609375 -7.785156 11.609375 -9.390625 L 11.609375 -11.765625 L 14.671875 -11.765625 L 14.671875 -10.71875 C 14.671875 -7.59375 14.566406 -5.453125 14.359375 -4.296875 C 13.828125 -1.179688 12.085938 0.375 9.140625 0.375 C 6.566406 0.375 4.859375 -0.410156 4.015625 -1.984375 C 3.441406 -3.023438 3.078125 -4.21875 2.921875 -5.5625 C 2.773438 -6.90625 2.703125 -8.65625 2.703125 -10.8125 Z M 2.703125 -21.4375 " />
      </g>
    </g>
  </g>
  <g fill="#000000" fill-opacity="1">
    <g transform="translate(434.699532, 510.947734)">
      <g>
        <path d="M 11.953125 -32.109375 C 12.003906 -32.109375 12.03125 -31.878906 12.03125 -31.421875 C 12.03125 -30.972656 12.023438 -30.523438 12.015625 -30.078125 L 12.015625 -29.421875 C 10.898438 -29.421875 9.914062 -29.195312 9.0625 -28.75 C 8.207031 -28.300781 7.375 -27.5 6.5625 -26.34375 L 6.5625 0 L 3.40625 0 L 3.40625 -31.71875 L 6.5625 -31.71875 L 6.5625 -28.1875 C 6.925781 -29.425781 7.566406 -30.390625 8.484375 -31.078125 C 9.410156 -31.765625 10.566406 -32.109375 11.953125 -32.109375 Z M 11.953125 -32.109375 " />
      </g>
    </g>
  </g>
  <g fill="#000000" fill-opacity="1">
    <g transform="translate(452.210169, 510.947734)">
      <g>
        <path d="M 10.515625 -31.71875 L 13.34375 -31.71875 L 8.734375 0 L 5.578125 0 L 0.953125 -31.71875 L 3.78125 -31.71875 L 6.28125 -13.203125 L 7.125 -5.484375 L 7.34375 -5.484375 L 8.1875 -13.21875 Z M 10.515625 -31.71875 " />
      </g>
    </g>
  </g>
  <g fill="#000000" fill-opacity="1">
    <g transform="translate(470.989779, 510.947734)">
      <g>
        <path d="M 3.421875 -31.71875 L 6.59375 -31.71875 L 6.59375 0 L 3.421875 0 Z M 3.421875 -37.6875 L 6.578125 -37.6875 L 6.578125 -34.640625 L 3.421875 -34.640625 Z M 3.421875 -37.6875 " />
      </g>
    </g>
  </g>
  <g fill="#000000" fill-opacity="1">
    <g transform="translate(485.476033, 510.947734)">
      <g>
        <path d="M 2.703125 -21.734375 C 2.703125 -25.265625 3.054688 -27.71875 3.765625 -29.09375 C 4.472656 -30.476562 5.414062 -31.367188 6.59375 -31.765625 C 7.289062 -31.992188 8.226562 -32.109375 9.40625 -32.109375 C 10.59375 -32.109375 11.679688 -31.78125 12.671875 -31.125 C 13.304688 -30.707031 13.816406 -29.898438 14.203125 -28.703125 C 14.597656 -27.503906 14.796875 -25.128906 14.796875 -21.578125 L 14.796875 -20.578125 L 11.609375 -20.578125 L 11.609375 -22.515625 C 11.609375 -24.972656 11.523438 -26.566406 11.359375 -27.296875 C 11.046875 -28.566406 10.265625 -29.203125 9.015625 -29.203125 C 7.472656 -29.203125 6.519531 -28.316406 6.15625 -26.546875 C 5.957031 -25.585938 5.859375 -24.191406 5.859375 -22.359375 L 5.859375 -9.625 C 5.859375 -6.757812 5.96875 -5.054688 6.1875 -4.515625 C 6.40625 -3.972656 6.628906 -3.5625 6.859375 -3.28125 C 7.242188 -2.769531 7.945312 -2.515625 8.96875 -2.515625 C 10 -2.515625 10.6875 -2.960938 11.03125 -3.859375 C 11.382812 -4.753906 11.566406 -5.726562 11.578125 -6.78125 C 11.597656 -7.84375 11.609375 -8.75 11.609375 -9.5 L 11.609375 -11.890625 L 14.796875 -11.890625 L 14.796875 -10.9375 C 14.796875 -7.757812 14.691406 -5.585938 14.484375 -4.421875 C 13.929688 -1.222656 12.148438 0.375 9.140625 0.375 C 6.566406 0.375 4.859375 -0.410156 4.015625 -1.984375 C 3.441406 -3.046875 3.078125 -4.253906 2.921875 -5.609375 C 2.773438 -6.960938 2.703125 -8.695312 2.703125 -10.8125 Z M 2.703125 -21.734375 " />
      </g>
    </g>
  </g>
  <g fill="#000000" fill-opacity="1">
    <g transform="translate(506.66669, 510.947734)">
      <g>
        <path d="M 11.609375 -18.546875 L 11.609375 -22.796875 C 11.609375 -25.179688 11.515625 -26.738281 11.328125 -27.46875 C 11.023438 -28.707031 10.253906 -29.328125 9.015625 -29.328125 C 7.347656 -29.328125 6.359375 -28.238281 6.046875 -26.0625 C 5.921875 -25.164062 5.859375 -24.078125 5.859375 -22.796875 C 5.859375 -22.671875 5.859375 -22.546875 5.859375 -22.421875 L 5.859375 -18.546875 Z M 2.703125 -21.4375 C 2.703125 -25.132812 3.039062 -27.675781 3.71875 -29.0625 C 4.425781 -30.4375 5.375 -31.332031 6.5625 -31.75 C 7.257812 -31.988281 8.070312 -32.109375 9 -32.109375 C 9.925781 -32.109375 10.726562 -31.992188 11.40625 -31.765625 C 12.425781 -31.421875 13.289062 -30.5 14 -29 C 14.507812 -27.9375 14.765625 -25.332031 14.765625 -21.1875 L 14.765625 -15.90625 L 5.859375 -15.90625 L 5.859375 -9.515625 C 5.859375 -6.242188 6.097656 -4.238281 6.578125 -3.5 C 7.066406 -2.757812 7.785156 -2.390625 8.734375 -2.390625 C 9.691406 -2.390625 10.363281 -2.6875 10.75 -3.28125 C 11.132812 -3.875 11.375 -4.640625 11.46875 -5.578125 C 11.5625 -6.515625 11.609375 -7.785156 11.609375 -9.390625 L 11.609375 -11.765625 L 14.671875 -11.765625 L 14.671875 -10.71875 C 14.671875 -7.59375 14.566406 -5.453125 14.359375 -4.296875 C 13.828125 -1.179688 12.085938 0.375 9.140625 0.375 C 6.566406 0.375 4.859375 -0.410156 4.015625 -1.984375 C 3.441406 -3.023438 3.078125 -4.21875 2.921875 -5.5625 C 2.773438 -6.90625 2.703125 -8.65625 2.703125 -10.8125 Z M 2.703125 -21.4375 " />
      </g>
    </g>
  </g>
  <g fill="#000000" fill-opacity="1">
    <g transform="translate(528.407235, 510.947734)">
      <g>
        <path d="M 2.53125 -24.953125 C 2.53125 -27.296875 3.09375 -29.070312 4.21875 -30.28125 C 5.34375 -31.5 6.890625 -32.109375 8.859375 -32.109375 C 10.835938 -32.109375 12.285156 -31.320312 13.203125 -29.75 C 14.117188 -28.1875 14.578125 -25.582031 14.578125 -21.9375 L 14.578125 -20.234375 L 11.296875 -20.234375 L 11.296875 -22.5 C 11.296875 -24.738281 11.097656 -26.414062 10.703125 -27.53125 C 10.316406 -28.644531 9.640625 -29.203125 8.671875 -29.203125 C 7.710938 -29.203125 6.984375 -28.878906 6.484375 -28.234375 C 5.984375 -27.597656 5.734375 -26.488281 5.734375 -24.90625 C 5.734375 -24.863281 5.734375 -24.820312 5.734375 -24.78125 C 5.734375 -22.3125 6.878906 -19.96875 9.171875 -17.75 L 10.8125 -16.15625 C 13.613281 -13.351562 15.015625 -10.257812 15.015625 -6.875 C 15.015625 -4.613281 14.523438 -2.832031 13.546875 -1.53125 C 12.578125 -0.226562 11.050781 0.421875 8.96875 0.421875 C 6.882812 0.421875 5.320312 -0.296875 4.28125 -1.734375 C 3.25 -3.171875 2.734375 -5.460938 2.734375 -8.609375 L 2.734375 -11.328125 L 5.96875 -11.328125 L 5.96875 -9.15625 C 5.96875 -4.6875 6.9375 -2.453125 8.875 -2.453125 C 9.925781 -2.453125 10.671875 -2.789062 11.109375 -3.46875 C 11.546875 -4.144531 11.765625 -5.34375 11.765625 -7.0625 C 11.765625 -9.613281 10.660156 -12.007812 8.453125 -14.25 L 6.78125 -15.953125 C 3.945312 -18.828125 2.53125 -21.828125 2.53125 -24.953125 Z M 2.53125 -24.953125 " />
      </g>
    </g>
  </g>
</svg>